<?xml version="1.0" encoding="UTF-8"?>
<svg width="328px" height="243px" viewBox="0 0 328 243" version="1.1" xmlns="http://www.w3.org/2000/svg" xmlns:xlink="http://www.w3.org/1999/xlink">
    <!-- Generator: Sketch 58 (84663) - https://sketch.com -->
    <title>Group</title>
    <desc>Created with Sketch.</desc>
    <g id="Page-1" stroke="none" stroke-width="1" fill="none" fill-rule="evenodd">
        <g id="app_icon-copy-9" transform="translate(0.000000, -3.000000)" fill="#212529" fill-rule="nonzero">
            <g id="Group" transform="translate(0.000000, 3.000000)">
                <path d="M5.68434189e-14,0 L68,0 C102.66684,0 130.866558,11.466552 152.6,34.4 C174.333442,57.333448 185.2,86.266492 185.2,121.2 C185.2,156.133508 174.20011,185.133218 152.2,208.2 C130.19989,231.266782 102.000172,242.8 67.6,242.8 L5.68434189e-14,242.8 L5.68434189e-14,127.817893 L5.68434189e-14,0 Z M41.2,205.6 L55.2,205.6 C113.333624,205.6 142.4,177.533614 142.4,121.4 C142.4,65.266386 113.333624,37.2 55.2,37.2 L41.2,37.2 L41.2,205.6 Z M270.6,0 L322.6,0 L230.2,112 L327.8,242.8 L273,242.8 L185.4,122.4 L185,113.6 L270.6,0 Z" id="DK"></path>
            </g>
        </g>
    </g>
</svg>