<?xml version="1.0" encoding="UTF-8"?>
<svg width="60px" height="19px" viewBox="0 0 60 19" version="1.1" xmlns="http://www.w3.org/2000/svg" xmlns:xlink="http://www.w3.org/1999/xlink">
    <!-- Generator: Sketch 51.2 (57519) - http://www.bohemiancoding.com/sketch -->
    <title>Group</title>
    <desc>Created with Sketch.</desc>
    <defs>
        <path d="M14.06,11.9 L10.94,10.44 C12.36,9.24 13.78,7.32 14.36,6.32 C13.74,6.42 11.6,6.86 9.2,7.34 C10.1,10.62 11.08,14.2 11.5,15.62 C11.64,16.06 12,17.16 12.2,17.68 L8.6,18.52 C8.48,17.92 8.32,17.04 8.1,16.28 C7.72,14.98 6.78,11.32 5.9,8.04 C4.02,8.44 2.36,8.8 1.62,8.98 L0.78,5.72 C1.6,5.64 2.36,5.56 3.18,5.44 C3.48,5.38 4.18,5.26 5.12,5.1 C4.9,4.3 4.72,3.62 4.56,3.12 C4.36,2.44 4.16,1.78 3.84,1.22 L7.38,0.42 C7.48,0.98 7.6,1.68 7.8,2.34 C7.96,2.92 8.18,3.66 8.4,4.48 C11.28,3.94 14.44,3.32 15.48,3.08 C15.96,3 16.48,2.82 16.84,2.66 L19.06,4.28 C18.14,6.36 15.72,9.96 14.06,11.9 Z M35.84,3.08 L38.3,4.6 C38.04,5.04 37.72,5.64 37.52,6.24 C36.98,7.9 35.9,10.54 34.06,12.8 C32.12,15.18 29.7,17.02 25.94,18.56 L23.06,16 C27.38,14.68 29.46,12.98 31.16,11.08 C32.42,9.68 33.54,7.38 33.8,6.08 L28.82,6.08 C27.4,7.86 25.62,9.58 23.78,10.86 L21.06,8.84 C24.6,6.66 26.22,4.26 27.28,2.58 C27.64,2.02 28.12,0.98 28.34,0.2 L31.88,1.36 C31.42,2 30.94,2.82 30.64,3.34 L33.86,3.34 C34.52,3.34 35.32,3.24 35.84,3.08 Z M59.7,3.32 L58.12,3.82 C57.84,2.96 57.5,1.94 57.1,1.12 L58.68,0.62 C59.06,1.44 59.48,2.58 59.7,3.32 Z M54.96,5.02 L56.02,5.02 C57.18,5.02 57.74,4.98 58.44,4.86 L58.44,8.06 C57.88,8 57.18,8 56.04,8 L54.96,8 L54.96,8.64 C54.96,13.38 53.74,16.56 48.76,18.74 L46.16,16.3 C50.16,14.98 51.78,13.24 51.78,8.72 L51.78,8 L47.58,8 L47.58,10.42 C47.58,11.4 47.64,12.18 47.68,12.68 L44.3,12.68 C44.36,12.18 44.42,11.4 44.42,10.42 L44.42,8 L42.98,8 C41.9,8 41.3,8.04 40.72,8.08 L40.72,4.8 C41.18,4.88 41.9,5.02 42.98,5.02 L44.42,5.02 L44.42,3.36 C44.42,2.54 44.34,1.84 44.28,1.36 L47.72,1.36 C47.66,1.84 47.58,2.52 47.58,3.38 L47.58,5.02 L51.78,5.02 L51.78,3.14 C51.78,2.32 51.74,1.66 51.66,1.16 L55.1,1.16 L55.04,1.76 L56.58,1.28 C56.96,2.1 57.36,3.22 57.56,3.98 L55.96,4.5 C55.68,3.66 55.42,2.66 55.02,1.84 C54.98,2.22 54.96,2.64 54.96,3.14 L54.96,5.02 Z" id="path-1"></path>
        <linearGradient x1="-161.198504%" y1="448.175352%" x2="95.362043%" y2="15.640755%" id="linearGradient-3">
            <stop stop-color="#333399" offset="0%"></stop>
            <stop stop-color="#FF00CC" offset="100%"></stop>
        </linearGradient>
    </defs>
    <g id="Page-1" stroke="none" stroke-width="1" fill="none" fill-rule="evenodd">
        <g id="Artboard-Copy-2" transform="translate(-41.000000, -38.000000)">
            <g id="Group" transform="translate(41.000000, 38.000000)">
                <mask id="mask-2" fill="white">
                    <use xlink:href="#path-1"></use>
                </mask>
                <use id="Mask" fill="#000000" xlink:href="#path-1"></use>
                <rect id="Rectangle-3" fill="url(#linearGradient-3)" fill-rule="nonzero" mask="url(#mask-2)" x="0" y="0" width="61" height="19"></rect>
            </g>
        </g>
    </g>
</svg>